<?xml version="1.0" standalone="no"?><!DOCTYPE svg PUBLIC "-//W3C//DTD SVG 1.1//EN" "http://www.w3.org/Graphics/SVG/1.1/DTD/svg11.dtd"><svg t="1609096717526" class="icon" viewBox="0 0 1024 1024" version="1.1" xmlns="http://www.w3.org/2000/svg" p-id="51839" xmlns:xlink="http://www.w3.org/1999/xlink" width="48" height="48"><defs><style type="text/css"></style></defs><path d="M892.162257 42.741917 131.837743 42.741917c-70.433862 0-128.22575 57.189888-128.22575 128.22575l0 682.666667c0 70.433862 57.189888 128.22575 128.22575 128.22575l760.324515 0c70.433862 0 128.22575-57.189888 128.22575-128.22575L1020.388007 170.365667C1020.388007 99.931805 963.198119 42.741917 892.162257 42.741917zM706.144621 267.287478c69.229865 0 125.817754 56.587889 125.817754 125.817754s-56.587889 125.817754-125.817754 125.817754-125.817754-56.587889-125.817754-125.817754S636.914756 267.287478 706.144621 267.287478zM386.483245 707.348618 196.251617 707.348618c-17.457966 0-31.905938-14.447972-31.905938-31.905938 0-17.457966 14.447972-31.905938 31.905938-31.905938l189.62963 0c17.457966 0 31.905938 14.447972 31.905938 31.905938C417.787184 692.900647 403.941211 707.348618 386.483245 707.348618zM386.483245 526.748971 196.251617 526.748971c-17.457966 0-31.905938-14.447972-31.905938-31.905938 0-17.457966 14.447972-31.905938 31.905938-31.905938l189.62963 0c17.457966 0 31.905938 14.447972 31.905938 31.905938C417.787184 512.300999 403.941211 526.748971 386.483245 526.748971zM386.483245 356.985303 196.251617 356.985303c-17.457966 0-31.905938-14.447972-31.905938-31.905938 0-17.457966 14.447972-31.905938 31.905938-31.905938l189.62963 0c17.457966 0 31.905938 14.447972 31.905938 31.905938C417.787184 342.537331 403.941211 356.985303 386.483245 356.985303zM706.144621 719.388595c-133.04174 0-192.037625-30.099941-192.037625-41.537919 0-16.855967 4.815991-35.517931 12.641975-53.577895 29.497942-70.433862 98.125808-108.961787 168.559671-101.135802 4.213992 0.601999 7.825985 0.601999 12.039976 0.601999 3.009994 0 6.621987 0 9.631981-0.601999 71.035861-6.019988 140.265726 31.905938 169.16167 102.941799 7.223986 18.059965 12.039976 36.119929 12.039976 52.373898C898.784245 689.890653 839.186361 719.388595 706.144621 719.388595z" p-id="51840" data-spm-anchor-id="a313x.7781069.0.i38" class="selected" fill="#ffffff"></path></svg>